<svg width="315" height="315" viewBox="0 0 315 315" fill="none" xmlns="http://www.w3.org/2000/svg">
<path d="M98.0376 166.273C98.0376 156.625 105.929 148.727 115.583 148.727H176.633C191.368 148.727 203.311 136.782 203.311 122.05L66.4545 122.068L57.4888 131.019C55.0553 133.449 53.7168 136.681 53.7168 140.127V214.416C53.7168 225.815 62.9584 235.057 74.3577 235.057H104.104C118.213 235.057 130.98 240.776 140.225 250.021C142.287 252.086 144.175 254.324 145.866 256.716C154.232 268.569 171.158 270.198 181.423 259.951L230.973 210.481L133.132 210.499C123.483 210.499 115.586 202.607 115.586 192.953H98.0406V166.273H98.0376Z" fill="#EDEDED"/>
<path d="M240.648 79.9431H210.902C196.793 79.9431 184.026 74.2241 174.781 64.9795C172.719 62.9169 170.828 60.6733 169.14 58.2842C160.773 46.4309 143.848 44.8016 133.583 55.0493L84.0356 104.516L185.762 104.501C195.41 104.501 203.308 112.399 203.308 122.05H220.853V148.727C220.853 158.376 212.959 166.273 203.308 166.273H142.257C127.522 166.273 115.58 178.218 115.58 192.95L248.528 192.953L257.514 183.979C259.948 181.548 261.286 178.316 261.286 174.87V100.581C261.286 89.1818 252.045 79.9401 240.645 79.9401L240.648 79.9431Z" fill="#EDEDED"/>
<path d="M268.872 46.1312C239.123 16.3821 199.571 0 157.503 0C115.435 0 75.8802 16.3821 46.1341 46.1312C16.3851 75.8772 0 115.429 0 157.5C0 199.571 16.3821 239.123 46.1311 268.869C75.8802 298.618 115.432 315 157.5 315C199.568 315 239.123 298.618 268.869 268.869C298.618 239.12 315 199.568 315 157.5C315 115.432 298.618 75.8772 268.869 46.1312H268.872ZM157.503 300.93C78.4147 300.93 14.0732 236.588 14.0732 157.5C14.0732 78.4117 78.4147 14.0702 157.503 14.0702C236.591 14.0702 300.933 78.4117 300.933 157.5C300.933 236.588 236.591 300.93 157.503 300.93Z" fill="#EDEDED"/>
</svg>
