<svg width="22" height="17" viewBox="0 0 22 17" fill="none" xmlns="http://www.w3.org/2000/svg">
<path d="M21.7637 2C20.9937 2.35 20.1637 2.58 19.3037 2.69C20.1837 2.16 20.8638 1.32 21.1838 0.31C20.3538 0.81 19.4337 1.16 18.4637 1.36C17.6737 0.5 16.5638 0 15.3038 0C12.9538 0 11.0337 1.92 11.0337 4.29C11.0337 4.63 11.0738 4.96 11.1438 5.27C7.58375 5.09 4.41375 3.38 2.30375 0.79C1.93375 1.42 1.72375 2.16 1.72375 2.94C1.72375 4.43 2.47375 5.75 3.63375 6.5C2.92375 6.5 2.26375 6.3 1.68375 6V6.03C1.68375 8.11 3.16375 9.85 5.12375 10.24C4.49448 10.4122 3.83385 10.4362 3.19375 10.31C3.46536 11.1625 3.99729 11.9084 4.71477 12.4429C5.43225 12.9775 6.2992 13.2737 7.19375 13.29C5.67738 14.4904 3.79775 15.1393 1.86375 15.13C1.52375 15.13 1.18375 15.11 0.84375 15.07C2.74375 16.29 5.00375 17 7.42375 17C15.3038 17 19.6338 10.46 19.6338 4.79C19.6338 4.6 19.6337 4.42 19.6237 4.23C20.4637 3.63 21.1837 2.87 21.7637 2Z" fill="black"/>
</svg>
