<svg width="25" height="24" viewBox="0 0 25 24" fill="none" xmlns="http://www.w3.org/2000/svg">
<path d="M24.7 12C24.7 18.6274 19.3274 24 12.7 24C6.0726 24 0.700012 18.6274 0.700012 12C0.700012 5.37258 6.0726 0 12.7 0C19.3274 0 24.7 5.37258 24.7 12Z" fill="#EDF0F4"/>
<path d="M12.6673 4.8L12.5718 5.12426V14.5326L12.6673 14.6278L17.0344 12.0464L12.6673 4.8Z" fill="#343434"/>
<path d="M12.6673 4.8L8.30001 12.0464L12.6673 14.6278L12.6673 10.0613L12.6673 4.8Z" fill="#8C8C8C"/>
<path d="M12.6673 15.4547L12.6135 15.5203V18.8717L12.6673 19.0287L17.0371 12.8746L12.6673 15.4547Z" fill="#3C3C3B"/>
<path d="M12.6673 19.0287V15.4547L8.30001 12.8746L12.6673 19.0287Z" fill="#8C8C8C"/>
<path d="M12.6673 14.6278L17.0344 12.0464L12.6673 10.0613L12.6673 14.6278Z" fill="#141414"/>
<path d="M8.30001 12.0464L12.6673 14.6278L12.6673 10.0613L8.30001 12.0464Z" fill="#393939"/>
</svg>
