<svg width="117" height="37" viewBox="0 0 117 37" fill="none" xmlns="http://www.w3.org/2000/svg">
<path d="M54.1815 16.774C54.4987 16.5031 54.6593 16.1587 54.6593 15.7508C54.6593 15.4507 54.5641 15.1798 54.3769 14.9472C54.1805 14.7035 53.8869 14.5797 53.5064 14.5797H43.3422V16.9039H50.3116L43.6173 22.4818C43.2767 22.7768 43.1038 23.1333 43.1038 23.5401C43.1038 23.8292 43.2 24.091 43.3882 24.3186C43.5846 24.5552 43.8649 24.6751 44.2199 24.6751H54.9518V22.3146H47.699L54.1815 16.774Z" fill="white"/>
<path d="M83.9602 12.0551C83.3934 12.0551 82.8574 12.3511 82.5618 12.8274L77.2352 21.4093L71.9086 12.8274C71.6405 12.3964 71.1761 12.1135 70.6697 12.0641L70.68 12.0551H70.5112C70.5112 12.0551 70.5102 12.0551 70.5091 12.0551H67.0341C66.6362 12.0551 66.2526 12.197 65.9539 12.4548L59.8293 17.7387V12.0551H56.7359V24.6751H59.8293V19.6893H60.7848L66.1002 24.2753C66.3989 24.5331 66.7825 24.6751 67.1804 24.6751H70.8713L63.3412 18.1868L68.7486 13.6693L75.0992 23.6972C75.3417 24.0859 75.6219 24.3931 75.9309 24.6086C76.2408 24.8251 76.6797 24.9379 77.2352 24.9449C77.7906 24.9379 78.2295 24.8251 78.5395 24.6086C78.8494 24.3931 79.1297 24.0859 79.3711 23.6972L86.7437 12.0551H83.9602Z" fill="white"/>
<path d="M102.629 17.0408H99.5175V24.6751H102.629V17.0408Z" fill="white"/>
<path d="M109.418 22.0085C108.993 22.0085 108.64 21.9742 108.368 21.9057C108.11 21.8413 107.904 21.7366 107.754 21.5946C107.604 21.4516 107.502 21.2754 107.441 21.0558C107.378 20.8252 107.346 20.5322 107.346 20.1868V12.0561H104.253V20.2955C104.253 21.0891 104.332 21.7678 104.488 22.3136C104.649 22.8755 104.926 23.3377 105.314 23.6872C105.698 24.0346 106.216 24.2904 106.85 24.4465C107.47 24.5995 108.254 24.6771 109.179 24.6771H116.999V22.0105H109.417L109.418 22.0085Z" fill="white"/>
<path d="M87.7983 13.6844L82.529 21.9964C82.1822 22.5442 82.1648 23.2088 82.483 23.7728C82.8011 24.3377 83.3832 24.6751 84.0389 24.6751H94.196C95.5893 24.6751 96.7227 23.5593 96.7227 22.1877V22.0266H86.1524L87.2183 20.3449C87.4781 19.934 87.9272 19.6893 88.4183 19.6893H94.196C95.5893 19.6893 96.7227 18.5735 96.7227 17.2019V17.0408H89.3123L90.456 15.2372C90.6678 14.9029 91.033 14.7035 91.4329 14.7035H102.63V12.0551H90.7895C89.566 12.0551 88.4479 12.6643 87.7994 13.6844H87.7983Z" fill="white"/>
<path d="M113.397 12.4015H112.757V12.0551H114.51V12.4015H113.868V13.5203H113.397V12.4015Z" fill="white"/>
<path d="M114.668 12.0551H115.331L115.845 12.9674L116.362 12.0551H117V13.5213H116.54V12.5062L115.954 13.5213H115.703L115.117 12.5062V13.5213H114.669V12.0551H114.668Z" fill="white"/>
<path d="M11.6966 19.5302C11.6966 18.3973 12.6378 17.4698 13.7896 17.4698H21.0742C22.8327 17.4698 24.2577 16.067 24.2577 14.336L7.92801 14.338L6.85798 15.3893C6.56746 15.6743 6.40787 16.0549 6.40787 16.4588V25.1846C6.40787 26.5239 7.51063 27.6095 8.87118 27.6095H12.4209C14.1047 27.6095 15.6279 28.2812 16.7307 29.3668C16.9772 29.6095 17.2022 29.8723 17.4038 30.1533C18.4022 31.545 20.4215 31.7373 21.646 30.5329L27.5588 24.7224L15.8836 24.7244C14.7328 24.7244 13.7906 23.7979 13.7906 22.664H11.6976V19.5302H11.6966Z" fill="white"/>
<path d="M28.7137 9.38947H25.164C23.4802 9.38947 21.957 8.71779 20.8542 7.63222C20.6077 7.38952 20.3826 7.12669 20.1811 6.84573C19.1827 5.45302 17.1634 5.26169 15.9389 6.46609L10.0271 12.2766L22.1657 12.2746C23.3165 12.2746 24.2587 13.2021 24.2587 14.336H26.3517V17.4698C26.3517 18.6037 25.4095 19.5302 24.2587 19.5302H16.9741C15.2156 19.5302 13.7906 20.933 13.7906 22.664H29.6538L30.7259 21.6097C31.0164 21.3247 31.176 20.944 31.176 20.5402V11.8144C31.176 10.475 30.0732 9.38947 28.7127 9.38947H28.7137Z" fill="white"/>
<path d="M32.0813 5.41878C28.5316 1.92442 23.8127 0 18.793 0C13.7732 0 9.05327 1.92442 5.50459 5.41878C1.95489 8.91315 0 13.5585 0 18.5C0 23.4415 1.95489 28.0879 5.50459 31.5812C9.0543 35.0756 13.7732 37 18.793 37C23.8127 37 28.5326 35.0756 32.0813 31.5812C35.631 28.0868 37.5859 23.4415 37.5859 18.5C37.5859 13.5585 35.631 8.91214 32.0813 5.41878ZM18.7919 35.3475C9.35505 35.3475 1.67767 27.7898 1.67767 18.5C1.67767 9.21022 9.35505 1.65252 18.7919 1.65252C28.2288 1.65252 35.9062 9.21022 35.9062 18.5C35.9062 27.7898 28.2288 35.3475 18.7919 35.3475Z" fill="white"/>
</svg>
