<svg width="23" height="23" viewBox="0 0 23 23" fill="none" xmlns="http://www.w3.org/2000/svg">
<path d="M11.3 22.7999C17.6 22.7999 22.6 17.7 22.6 11.5C22.6 5.19995 17.5 0.199951 11.3 0.199951C5 0.199951 0 5.29995 0 11.5C0 17.7 5.1 22.7999 11.3 22.7999Z" fill="#2C374B"/>
<path fill-rule="evenodd" clip-rule="evenodd" d="M17.5 7.39995C17.4 7.29995 12.5 4.39995 11.9 4.19995C11.7 4.09995 11.2 3.99995 10.9 4.09995C10.6 4.19995 5.4 7.19995 5.2 7.39995C5.1 7.49995 5 7.69995 4.9 7.79995C4.8 7.99995 4.8 8.09995 4.8 11.6V15.2L5.5 15.6C5.9 15.8 6.2 16 6.2 16C6.3 16 11 8.49995 11 8.39995C11 8.29995 9.9 8.29995 9.6 8.39995C9.2 8.49995 8.9 8.69995 8.7 8.89995C8.6 8.99995 8 9.99995 7.2 11.1C6.5 12.2 5.9 13.2 5.9 13.2C5.9 13.2 5.9 12.2 5.9 10.8V8.29995L6 8.19995C6.2 7.99995 11.3 5.09995 11.5 5.09995C11.6 5.09995 11.7 5.09995 12.9 5.79995C13.3 5.99995 14.4 6.59995 15.3 7.19995C16.2 7.69995 17 8.19995 17.1 8.29995L17.2 8.39995V13.6L14.7 9.69995C14.6 9.49995 14.5 9.29995 14.4 9.19995C14.4 9.19995 14.3 9.39995 13.7 10.4C13.6 10.5 13.5 10.7 13.5 10.8L13.4 11L13.6 11.2C13.6 11.2 13.6 11.3 13.7 11.3L13.9 11.6C13.9 11.6 13.9 11.7 14 11.7C14.1 11.8 14.2 12 14.2 12.1C14.2 12.1 14.2 12.0999 14.2 12.2L16.3 15.6L16.1 15.7C16 15.8 15.9 15.8 15.8 15.8L13.2 11.8L13.1 11.7L12.9 12.1L11.9 13.7L13.9 16.9C13.6 17.1 11.9 18.2999 11.8 18.2999C11.7 18.2999 9.4 16.8 9.5 16.7C9.5 16.7 10.2 15.5 11 14.1C11.7 12.9 12.6 11.4 13.2 10.4C13.9 9.19995 14.2 8.59995 14.2 8.59995C14.2 8.59995 13.7 8.59995 13.1 8.59995H12.1L9.8 12.4C9 13.8 8.2 15.1 7.8 15.8C7.1 15.9 6.9 16.1 6.9 16.1L6.8 16.2999L8.6 17.2999C9.6 17.9 10.5 18.4 10.7 18.5C11 18.7 11.5 18.7 11.7 18.7C11.9 18.6 17.1 15.6 17.4 15.4C17.5 15.3 17.6 15.2 17.7 15L17.8 14.7V8.09995L17.7 7.89995C17.7 7.69995 17.5 7.49995 17.5 7.39995Z" fill="white"/>
<path d="M17 13.5L14 8.89995L12.9 10.7L15.8 15.4L17.1 14.8L17 13.5Z" fill="#24A2EE"/>
<path d="M15.6 16L12.6 11.4L11.3 13.4L13.7 17.2L15.2 16.6L15.6 16Z" fill="#24A2EE"/>
<path fill-rule="evenodd" clip-rule="evenodd" d="M5.8 8.29995L11.3 5.09995L16.8 8.29995V14.7L11.3 17.9L7.2 15.6L6.7 16.5L11.2 19.1C11.3 19.2 11.4 19.2 11.5 19.1L17.8 15.5C17.9 15.4 18 15.3 18 15.2V7.99995C18 7.89995 17.9 7.79995 17.8 7.69995L11.5 4.09995C11.4 3.99995 11.3 3.99995 11.2 4.09995L4.9 7.59995C4.8 7.69995 4.7 7.79995 4.7 7.89995V15.1C4.7 15.2 4.8 15.3 4.9 15.4L6.2 16.1L6.8 15.2L5.9 14.7V8.29995L5.8 8.29995Z" fill="#98BCDC"/>
<path d="M13.7 8.29995H11.6L6.7 16.2999L8.4 17.2999L13.7 8.29995Z" fill="white"/>
<path d="M8.4 9.09995C8.9 8.29995 10.3 8.29995 10.9 8.39995L6.1 16.1C5.9 16 5.5 15.8 5.2 15.6C4.8 15.4 4.7 15.4 4.7 15.1V14.7C5.8 13.1 7.9 9.89995 8.4 9.09995Z" fill="white"/>
</svg>
