<svg width="16" height="19" viewBox="0 0 16 19" fill="none" xmlns="http://www.w3.org/2000/svg">
<path d="M15.8429 15.4708C15.1525 14.9147 14.4621 14.3587 13.7457 13.7817C13.2283 14.6199 12.7172 15.448 12.1903 16.3016C11.6356 15.7807 11.1088 15.2858 10.5572 14.7677C9.68805 16.177 8.82608 17.5745 7.94697 19C7.0723 17.5813 6.2124 16.1866 5.3382 14.7684C4.7919 15.2803 4.25577 15.7827 3.70335 16.3005C3.18229 15.4563 2.67282 14.6307 2.14903 13.782C1.43887 14.3538 0.738975 14.9173 0 15.5122C0.0197763 15.4452 0.0231665 15.4212 0.0335256 15.4009C1.08403 13.3325 1.5159 11.1272 1.50479 8.82026C1.50055 7.92552 1.50818 7.03031 1.53775 6.13614C1.56468 5.319 1.98451 4.06113 2.37231 3.52256C2.70361 3.91027 3.03924 4.29374 3.35924 4.68993C3.39691 4.73654 3.37073 4.86414 3.33561 4.93525C3.10102 5.40959 2.98735 5.90419 3.10554 6.42666C3.31056 7.33251 4.15218 7.9921 5.15117 8.04879C5.25024 8.05444 5.3494 8.05821 5.45346 8.06301C5.43566 8.36324 5.42813 8.64274 5.39574 8.91933C5.3882 8.98393 5.30636 9.05635 5.24091 9.09487C4.68501 9.4224 4.12487 9.74278 3.56633 10.0658C3.49984 10.1042 3.43515 10.1456 3.34427 10.201C3.41443 10.2465 3.4666 10.2843 3.52226 10.3157C3.7996 10.4727 4.06658 10.6546 4.35785 10.7792C5.35524 11.2058 5.92988 12.003 6.35583 12.9548C6.92944 14.2366 7.30613 15.5828 7.69911 16.9245C7.77285 17.1763 7.84941 17.4272 7.97155 17.6798C8.12939 17.1416 8.28524 16.6028 8.44543 16.0654C8.81158 14.8365 9.18262 13.6099 9.78316 12.4677C10.1357 11.7974 10.593 11.2429 11.2992 10.9104C11.7197 10.7124 12.1146 10.4598 12.5561 10.2119C12.4696 10.156 12.4054 10.1104 12.3374 10.0712C11.7789 9.74814 11.221 9.4241 10.6595 9.10617C10.5478 9.04288 10.4924 8.97442 10.4907 8.83608C10.4878 8.58859 10.4556 8.34139 10.4336 8.06781C11.2789 8.04823 12.0288 7.79744 12.5192 7.06129C13.029 6.29576 12.8751 5.5227 12.4756 4.77261C12.8241 4.35222 13.1657 3.94021 13.527 3.50438C13.5903 3.61833 13.6573 3.72578 13.7119 3.83935C14.1564 4.76432 14.3913 5.73459 14.3859 6.76691C14.3805 7.79396 14.3835 8.82205 14.4234 9.84806C14.4976 11.7522 14.9567 13.5649 15.7976 15.278C15.8241 15.3318 15.8487 15.3867 15.8429 15.4708Z" fill="black"/>
<path d="M14.0685 1.0548C14.0207 1.17205 13.9834 1.27959 13.9344 1.38149C13.4717 2.34469 12.7751 3.12717 12.0035 3.84665C11.1696 4.62405 10.2604 5.29965 9.24551 5.82805C9.09964 5.90405 8.99793 5.90895 8.84895 5.81929C8.24257 5.45428 7.62922 5.46596 7.01644 5.82542C6.93828 5.87128 6.79956 5.89774 6.72855 5.85951C4.84895 4.84781 3.24029 3.53221 2.11756 1.68435C1.99419 1.4814 1.90756 1.25614 1.81932 1.07316C2.1476 1.315 2.47297 1.59272 2.8345 1.80997C3.18765 2.02224 3.29133 1.98212 3.58656 1.70488C6.0248 -0.584563 9.94333 -0.567989 12.3482 1.75347C12.5473 1.94558 12.7364 1.98419 12.9473 1.86205C13.2339 1.69602 13.5018 1.49685 13.7734 1.30568C13.8725 1.23599 13.9592 1.14869 14.0685 1.0548Z" fill="black"/>
<path d="M10.4514 10.1908C8.8738 11.1098 8.4648 12.702 7.94836 14.2887C7.82283 13.906 7.71669 13.5748 7.60576 13.2454C7.32644 12.4162 7.00493 11.6048 6.39093 10.9583C6.12093 10.674 5.80188 10.4362 5.4896 10.1638C5.70394 10.04 5.93033 9.89626 6.16849 9.77562C6.37548 9.67071 6.44216 9.52013 6.45223 9.29091C6.47192 8.84256 6.50054 8.39015 6.58257 7.95017C6.67241 7.46838 6.95182 7.0819 7.35102 6.79109C7.72818 6.5163 8.16562 6.5163 8.54269 6.79119C9.13626 7.22401 9.36548 7.84413 9.42386 8.54431C9.44515 8.79952 9.44373 9.05736 9.43902 9.3137C9.43526 9.51354 9.50607 9.65452 9.68472 9.75114C9.93023 9.88392 10.1694 10.0283 10.4514 10.1908Z" fill="black"/>
<path d="M6.23432 6.77639C5.73681 7.17163 4.64393 7.09046 4.2484 6.49076C4.03294 6.16427 4.07607 5.83259 4.22938 5.51184C4.91694 5.9455 5.57907 6.36316 6.23432 6.77639Z" fill="black"/>
<path d="M11.1379 6.88771C10.6372 7.09687 10.015 7.04658 9.65035 6.78101C10.3098 6.36514 10.9776 5.9441 11.6593 5.51429C11.9454 6.1009 11.7481 6.63279 11.1379 6.88771Z" fill="black"/>
</svg>
