<svg width="19" height="17" viewBox="0 0 19 17" fill="none" xmlns="http://www.w3.org/2000/svg">
<path d="M9.90609 0C9.39546 0 8.92997 0.265077 8.00055 0.792892L2.90936 3.68223C2.03269 4.16998 1.30212 4.87677 0.791331 5.73131C0.280538 6.58585 0.00758558 7.55793 0 8.54951L0 8.7335C0.00764194 9.7238 0.279967 10.6947 0.78958 11.5484C1.29919 12.4021 2.02812 13.1087 2.90303 13.5969L6.08789 15.408C7.95147 16.4683 8.88326 17 9.90688 17C10.9297 17.0008 11.8623 16.4714 13.7267 15.4111L17.092 13.4986C18.0238 12.9685 18.4885 12.7034 18.7442 12.2676C18.9999 11.831 19.0007 11.3008 18.9999 10.2405V8.19009C19.0001 8.04784 18.9622 7.90804 18.8902 7.78475C18.8182 7.66145 18.7144 7.55899 18.5895 7.48766C18.4645 7.41633 18.3226 7.37863 18.1782 7.37835C18.0338 7.37807 17.8918 7.41523 17.7665 7.48608L10.8569 11.403C10.3922 11.6657 10.1602 11.7983 9.90609 11.7983C9.65038 11.7983 9.41842 11.6673 8.95292 11.4038L4.27894 8.75845C4.04382 8.62513 3.92586 8.55886 3.83165 8.54717C3.7276 8.53404 3.62206 8.55503 3.53134 8.60688C3.44062 8.65874 3.36977 8.73859 3.32974 8.83407C3.29411 8.92061 3.29411 9.05393 3.2957 9.32135C3.29728 9.51782 3.2957 9.61605 3.31549 9.70649C3.35745 9.90841 3.46511 10.0908 3.62186 10.2265C3.69232 10.2865 3.77861 10.3357 3.95119 10.4339L8.95055 13.2796C9.41684 13.5446 9.65038 13.6772 9.90609 13.6772C10.1626 13.6772 10.3945 13.5446 10.8608 13.2803L16.9883 9.79615C17.1482 9.70571 17.2274 9.66205 17.2868 9.69479C17.3461 9.7291 17.3461 9.81954 17.3461 10.0004V10.9305C17.3461 11.1956 17.3469 11.3281 17.2828 11.4365C17.2195 11.5457 17.1031 11.6111 16.8696 11.7437L11.8172 14.6166C10.8846 15.1468 10.4183 15.4119 9.90688 15.4119C9.39546 15.4119 8.92838 15.1468 7.99739 14.6151L3.27115 11.9238L3.23711 11.9043C2.75035 11.6236 2.34615 11.2229 2.06424 10.7418C1.78234 10.2606 1.63242 9.71547 1.62924 9.15996V8.2665C1.62947 7.95956 1.71148 7.65805 1.86707 7.39209C2.02266 7.12613 2.24639 6.90503 2.51591 6.75088C2.75429 6.61491 3.02486 6.54324 3.30034 6.54311C3.57582 6.54297 3.84646 6.61437 4.08498 6.7501L8.00055 8.97831C8.92997 9.50768 9.39546 9.77276 9.90609 9.77354C10.4167 9.77354 10.8822 9.50846 11.814 8.98065L17.7372 5.62353C17.8688 5.54894 17.978 5.44153 18.054 5.31212C18.13 5.18271 18.17 5.03586 18.17 4.88638C18.17 4.73689 18.13 4.59005 18.054 4.46064C17.978 4.33122 17.8688 4.22382 17.7372 4.14923L11.8116 0.789773C10.8814 0.263517 10.4167 0 9.90688 0H9.90609Z" fill="black"/>
</svg>
