<svg width="126" height="25" viewBox="0 0 126 25" fill="none" xmlns="http://www.w3.org/2000/svg">
<path fill-rule="evenodd" clip-rule="evenodd" d="M44.0633 12.2708L31.756 0V8.98437L19.5372 17.9792L31.756 17.9896V24.5365L44.0633 12.2708Z" fill="black"/>
<path fill-rule="evenodd" clip-rule="evenodd" d="M0.671997 12.2656L12.9793 24.5313V15.6198L25.198 6.55208L12.9793 6.54167V0L0.671997 12.2656Z" fill="black"/>
<path d="M62.4015 18.3955H52.9796V15.6924L58.3702 9.68197H53.115V7.02051H62.3025V9.58822L56.7504 15.7132H62.3963V18.3955H62.4015Z" fill="black"/>
<path d="M75.2556 7.02083L70.6983 11.8073L75.3493 18.3958H71.5785L68.5681 14.0469L67.2972 15.3854V18.3906H64.2191V1.65625H67.2972V11.25L71.2295 7.02083H75.2556Z" fill="black"/>
<path d="M88.6463 5.91081L85.7765 6.79102C85.6671 6.20768 85.3755 5.67122 84.8963 5.19727C84.4171 4.7181 83.714 4.47852 82.7921 4.47852C82.0369 4.47852 81.4171 4.68685 80.938 5.10352C80.4588 5.50456 80.2192 5.98893 80.2192 6.56185C80.2192 7.56185 80.813 8.18164 82.0005 8.41081L84.2921 8.84831C85.7452 9.12435 86.8702 9.70247 87.6723 10.5827C88.4744 11.4629 88.8755 12.4941 88.8755 13.6816C88.8755 15.0358 88.3338 16.2233 87.2557 17.2441C86.1932 18.2441 84.7557 18.7493 82.9484 18.7493C81.9119 18.7493 80.9796 18.5931 80.1463 18.2858C79.313 17.9785 78.6411 17.5671 78.1307 17.0618C77.6202 16.5358 77.2192 15.9889 76.9275 15.4212C76.6515 14.8379 76.4796 14.2337 76.4171 13.6191L79.3807 12.8327C79.4588 13.7129 79.7973 14.4421 80.4015 15.0306C81.0161 15.6139 81.8755 15.9108 82.9692 15.9108C83.8025 15.9108 84.4484 15.7233 84.9119 15.3535C85.3911 14.9837 85.6307 14.4993 85.6307 13.8952C85.6307 13.416 85.4536 13.0098 85.0994 12.6712C84.7609 12.3171 84.2713 12.0775 83.6411 11.9525L81.3494 11.4889C80.0213 11.2129 78.9744 10.666 78.2036 9.84831C77.4327 9.0306 77.0473 8.01497 77.0473 6.79622C77.0473 5.34831 77.6046 4.12956 78.714 3.14518C79.839 2.16081 81.1932 1.66602 82.7661 1.66602C83.7088 1.66602 84.5473 1.79622 85.2869 2.05664C86.0265 2.31706 86.6202 2.67122 87.0682 3.11914C87.5161 3.55143 87.865 3.99935 88.1098 4.45768C88.3546 4.92122 88.5369 5.4056 88.6411 5.91602L88.6463 5.91081Z" fill="black"/>
<path d="M94.0626 22.8799H90.797L93.4793 16.9632L88.6408 7.02051H92.0887L95.1199 13.682L97.922 7.02051H101.208L94.0574 22.8799H94.0626Z" fill="black"/>
<path d="M105.462 11.8486V18.3903H102.384V7.02051H105.368V8.43197C105.691 7.87467 106.155 7.4528 106.759 7.16113C107.363 6.86947 107.993 6.72363 108.655 6.72363C109.999 6.72363 111.014 7.14551 111.712 7.99447C112.42 8.8278 112.775 9.90592 112.775 11.234V18.4007H109.696V11.7653C109.696 11.0882 109.519 10.5413 109.165 10.1247C108.827 9.70801 108.301 9.49967 107.592 9.49967C106.946 9.49967 106.426 9.72363 106.04 10.1715C105.655 10.6195 105.462 11.182 105.462 11.859V11.8486Z" fill="black"/>
<path d="M120.322 9.5153C119.504 9.5153 118.817 9.80176 118.26 10.3695C117.702 10.9372 117.426 11.7184 117.426 12.7028C117.426 13.6872 117.702 14.4736 118.26 15.0622C118.832 15.6351 119.525 15.9163 120.343 15.9163C121.067 15.9163 121.645 15.7288 122.077 15.359C122.51 14.9736 122.801 14.5205 122.957 13.9945L125.666 14.8955C125.39 15.9424 124.786 16.8434 123.859 17.5986C122.931 18.3538 121.76 18.734 120.338 18.734C118.64 18.734 117.213 18.1663 116.056 17.0205C114.916 15.8643 114.343 14.4215 114.343 12.6976C114.343 10.9736 114.905 9.5153 116.03 8.37467C117.171 7.23405 118.577 6.66113 120.244 6.66113C121.697 6.66113 122.885 7.04134 123.806 7.79655C124.734 8.53613 125.327 9.43717 125.588 10.4997L122.832 11.4268C122.463 10.1455 121.619 9.51009 120.312 9.51009L120.322 9.5153Z" fill="black"/>
</svg>
