<svg width="13" height="13" viewBox="0 0 13 13" fill="none" xmlns="http://www.w3.org/2000/svg">
<path d="M4.046 6.86205C4.046 6.46387 4.37167 6.13795 4.7701 6.13795H7.28963C7.89774 6.13795 8.3906 5.64497 8.3906 5.03698L2.74257 5.03771L2.37256 5.40711C2.27212 5.50742 2.21688 5.64081 2.21688 5.783V8.84892C2.21688 9.31936 2.59828 9.70076 3.06873 9.70076H4.29634C4.87861 9.70076 5.40552 9.93678 5.78705 10.3183C5.87217 10.4036 5.95007 10.4959 6.01988 10.5946C6.36515 11.0838 7.06365 11.151 7.48731 10.7281L9.53223 8.68651L5.49432 8.68724C5.09614 8.68724 4.77022 8.36157 4.77022 7.96314H4.04612V6.86205H4.046Z" fill="black"/>
<path d="M9.93151 3.29924H8.7039C8.12163 3.29924 7.59472 3.06322 7.2132 2.68169C7.12808 2.59657 7.05006 2.50398 6.98037 2.40538C6.63509 1.9162 5.93659 1.84895 5.51294 2.27188L3.46814 4.31337L7.66637 4.31276C8.06456 4.31276 8.39047 4.63868 8.39047 5.03698H9.11457V6.13795C9.11457 6.53613 8.78878 6.86205 8.39047 6.86205H5.87094C5.26283 6.86205 4.76997 7.35503 4.76997 7.96302L10.2567 7.96314L10.6276 7.59276C10.728 7.49245 10.7832 7.35907 10.7832 7.21688V4.15096C10.7832 3.68052 10.4018 3.29911 9.93139 3.29911L9.93151 3.29924Z" fill="black"/>
<path d="M11.0963 1.90383C9.86856 0.676088 8.23627 0 6.50012 0C4.76397 0 3.13156 0.676088 1.90395 1.90383C0.676211 3.13144 0 4.76373 0 6.5C0 8.23627 0.676088 9.86856 1.90383 11.0962C3.13156 12.3239 4.76385 13 6.5 13C8.23615 13 9.86856 12.3239 11.0962 11.0962C12.3239 9.86844 13 8.23615 13 6.5C13 4.76385 12.3239 3.13144 11.0962 1.90383H11.0963ZM6.50012 12.4193C3.23616 12.4193 0.580799 9.76396 0.580799 6.5C0.580799 3.23604 3.23616 0.580677 6.50012 0.580677C9.76408 0.580677 12.4194 3.23604 12.4194 6.5C12.4194 9.76396 9.76408 12.4193 6.50012 12.4193Z" fill="black"/>
</svg>
