<svg width="48" height="48" viewBox="0 0 48 48" fill="none" xmlns="http://www.w3.org/2000/svg">
<g filter="url(#filter0_d_1_2582)">
<path d="M23.7 0C19.1913 0 14.8673 1.79107 11.6792 4.97918C8.49108 8.1673 6.70001 12.4913 6.70001 17C6.70001 21.5087 8.49108 25.8327 11.6792 29.0208C14.8673 32.2089 19.1913 34 23.7 34C28.2087 34 32.5327 32.2089 35.7208 29.0208C38.9089 25.8327 40.7 21.5087 40.7 17C40.7 12.4913 38.9089 8.1673 35.7208 4.97918C32.5327 1.79107 28.2087 0 23.7 0ZM32.2 17.034C32.2029 17.2169 32.1688 17.3985 32.0999 17.5679C32.031 17.7373 31.9286 17.8911 31.7988 18.02L26.2024 23.5994C26.0754 23.7267 25.9245 23.8276 25.7585 23.8966C25.5924 23.9655 25.4144 24.0011 25.2346 24.0013C25.0548 24.0014 24.8767 23.9662 24.7106 23.8975C24.5444 23.8288 24.3934 23.7281 24.2661 23.6011C24.1389 23.4741 24.0379 23.3232 23.9689 23.1572C23.9 22.9911 23.8644 22.8131 23.8642 22.6333C23.8641 22.4535 23.8993 22.2754 23.968 22.1093C24.0367 21.9431 24.1374 21.7921 24.2644 21.6648L27.542 18.3838H16.56C16.1993 18.3838 15.8534 18.2405 15.5983 17.9855C15.3433 17.7304 15.2 17.3845 15.2 17.0238C15.2 16.6631 15.3433 16.3172 15.5983 16.0621C15.8534 15.8071 16.1993 15.6638 16.56 15.6638H27.5726L24.2644 12.3556C24.0074 12.0986 23.863 11.75 23.863 11.3866C23.863 11.2066 23.8985 11.0284 23.9674 10.8622C24.0362 10.6959 24.1372 10.5449 24.2644 10.4176C24.3917 10.2903 24.5427 10.1894 24.709 10.1205C24.8753 10.0517 25.0535 10.0162 25.2334 10.0162C25.5969 10.0162 25.9454 10.1606 26.2024 10.4176L31.7988 15.997C31.9265 16.1239 32.0277 16.2749 32.0966 16.4413C32.1654 16.6076 32.2006 16.786 32.2 16.966V17.034Z" fill="black"/>
</g>
<defs>
<filter id="filter0_d_1_2582" x="0.100012" y="0" width="47.2" height="47.6" filterUnits="userSpaceOnUse" color-interpolation-filters="sRGB">
<feFlood flood-opacity="0" result="BackgroundImageFix"/>
<feColorMatrix in="SourceAlpha" type="matrix" values="0 0 0 0 0 0 0 0 0 0 0 0 0 0 0 0 0 0 127 0" result="hardAlpha"/>
<feOffset dy="7"/>
<feGaussianBlur stdDeviation="3.3"/>
<feComposite in2="hardAlpha" operator="out"/>
<feColorMatrix type="matrix" values="0 0 0 0 0 0 0 0 0 0 0 0 0 0 0 0 0 0 0.25 0"/>
<feBlend mode="normal" in2="BackgroundImageFix" result="effect1_dropShadow_1_2582"/>
<feBlend mode="normal" in="SourceGraphic" in2="effect1_dropShadow_1_2582" result="shape"/>
</filter>
</defs>
</svg>
