<svg width="90" height="90" viewBox="0 0 90 90" fill="none" xmlns="http://www.w3.org/2000/svg">
<path d="M88.363 40.9831L49.0122 1.63681C47.9403 0.587587 46.5 0 45 0C43.5 0 42.0597 0.587587 40.9878 1.63681L1.637 40.9831C0.587655 42.0548 0 43.495 0 44.9948C0 46.4947 0.587655 47.9348 1.637 49.0066L40.9878 88.3528C42.0564 89.4082 43.498 90 45 90C46.502 90 47.9436 89.4082 49.0122 88.3528L88.363 49.0066C89.4123 47.9348 90 46.4947 90 44.9948C90 43.495 89.4123 42.0548 88.363 40.9831ZM39.8561 56.5672C39.8561 56.9665 39.7631 57.3602 39.5846 57.7173C39.406 58.0744 39.1468 58.385 38.8273 58.6246L33.6834 62.482C33.2382 62.8159 32.6968 62.9964 32.1403 62.9964C31.741 62.9964 31.3472 62.9034 30.9901 62.7249C30.6329 62.5463 30.3223 62.2871 30.0827 61.9677C29.6734 61.4221 29.4977 60.7362 29.5942 60.061C29.6906 59.3858 30.0514 58.7766 30.5971 58.3674L34.7122 55.2814V34.7082L30.5971 31.6222C30.0514 31.213 29.6906 30.6038 29.5942 29.9286C29.4977 29.2534 29.6734 28.5676 30.0827 28.0219C30.492 27.4763 31.1013 27.1156 31.7765 27.0191C32.4518 26.9227 33.1377 27.0984 33.6834 27.5076L38.8273 31.3651C39.1468 31.6046 39.406 31.9152 39.5846 32.2723C39.7631 32.6294 39.8561 33.0232 39.8561 33.4224V56.5672ZM59.4029 58.3674C59.6731 58.57 59.9007 58.8239 60.0728 59.1145C60.2449 59.4051 60.3581 59.7267 60.4058 60.061C60.4536 60.3954 60.435 60.7358 60.3512 61.063C60.2674 61.3901 60.1199 61.6975 59.9173 61.9677C59.6777 62.2871 59.3671 62.5463 59.0099 62.7249C58.6528 62.9034 58.259 62.9964 57.8597 62.9964C57.3032 62.9964 56.7617 62.8159 56.3166 62.482L51.1727 58.6246C50.8532 58.385 50.594 58.0744 50.4154 57.7173C50.2369 57.3602 50.1439 56.9665 50.1439 56.5672V33.4224C50.1439 33.0232 50.2369 32.6294 50.4154 32.2723C50.594 31.9152 50.8532 31.6046 51.1727 31.3651L56.3166 27.5076C56.5868 27.305 56.8942 27.1575 57.2214 27.0737C57.5486 26.9899 57.8891 26.9714 58.2235 27.0191C58.5578 27.0669 58.8795 27.18 59.1701 27.3521C59.4607 27.5241 59.7146 27.7518 59.9173 28.0219C60.1199 28.2921 60.2674 28.5995 60.3512 28.9267C60.435 29.2538 60.4536 29.5943 60.4058 29.9286C60.3581 30.2629 60.2449 30.5846 60.0728 30.8752C59.9007 31.1658 59.6731 31.4196 59.4029 31.6222L55.2878 34.7082V55.2814L59.4029 58.3674Z" fill="url(#paint0_linear_1_2368)"/>
<defs>
<linearGradient id="paint0_linear_1_2368" x1="-12.5" y1="-47" x2="108.5" y2="144.5" gradientUnits="userSpaceOnUse">
<stop/>
<stop offset="1" stop-color="#666666"/>
</linearGradient>
</defs>
</svg>
